<svg width="2313" height="606" viewBox="0 0 2313 606" fill="none" xmlns="http://www.w3.org/2000/svg">
<rect width="2313" height="606" rx="190" fill="url(#paint0_linear_402_6)"/>
<path d="M332.48 488L246.48 208H244.48C244.814 214.667 245.314 224.667 245.98 238C246.647 251.333 247.314 265.667 247.98 281C248.647 296 248.98 309.667 248.98 322V488H181.48V131H284.48L368.98 404H370.48L459.98 131H562.98V488H492.48V319C492.48 307.667 492.647 294.667 492.98 280C493.647 265.333 494.147 251.5 494.48 238.5C495.147 225.167 495.647 215.167 495.98 208.5H493.98L401.98 488H332.48ZM653.16 488V131H728.66V425.5H873.66V488H653.16ZM1086.88 488L1000.88 208H998.875C999.208 214.667 999.708 224.667 1000.38 238C1001.04 251.333 1001.71 265.667 1002.38 281C1003.04 296 1003.38 309.667 1003.38 322V488H935.875V131H1038.88L1123.38 404H1124.88L1214.38 131H1317.38V488H1246.88V319C1246.88 307.667 1247.04 294.667 1247.38 280C1248.04 265.333 1248.54 251.5 1248.88 238.5C1249.54 225.167 1250.04 215.167 1250.38 208.5H1248.38L1156.38 488H1086.88ZM1513.55 209.5C1550.22 209.5 1578.22 217.5 1597.55 233.5C1617.22 249.167 1627.05 273.333 1627.05 306V488H1575.05L1560.55 451H1558.55C1550.89 460.667 1542.89 468.667 1534.55 475C1526.55 481.333 1517.22 485.833 1506.55 488.5C1496.22 491.5 1483.39 493 1468.05 493C1452.05 493 1437.55 490 1424.55 484C1411.89 477.667 1401.89 468.167 1394.55 455.5C1387.22 442.5 1383.55 426.167 1383.55 406.5C1383.55 377.5 1393.72 356.167 1414.05 342.5C1434.39 328.5 1464.89 320.833 1505.55 319.5L1553.05 318V306C1553.05 291.667 1549.22 281.167 1541.55 274.5C1534.22 267.833 1523.89 264.5 1510.55 264.5C1497.22 264.5 1484.22 266.5 1471.55 270.5C1458.89 274.167 1446.22 278.833 1433.55 284.5L1409.05 234C1423.72 226.333 1439.89 220.333 1457.55 216C1475.55 211.667 1494.22 209.5 1513.55 209.5ZM1524.05 362.5C1500.05 363.167 1483.39 367.5 1474.05 375.5C1464.72 383.5 1460.05 394 1460.05 407C1460.05 418.333 1463.39 426.5 1470.05 431.5C1476.72 436.167 1485.39 438.5 1496.05 438.5C1512.05 438.5 1525.55 433.833 1536.55 424.5C1547.55 414.833 1553.05 401.333 1553.05 384V361.5L1524.05 362.5ZM1818.31 433.5C1826.65 433.5 1834.65 432.667 1842.31 431C1849.98 429.333 1857.65 427.333 1865.31 425V480.5C1857.31 483.833 1847.31 486.667 1835.31 489C1823.65 491.667 1810.81 493 1796.81 493C1780.48 493 1765.81 490.333 1752.81 485C1740.15 479.667 1729.98 470.5 1722.31 457.5C1714.98 444.167 1711.31 425.833 1711.31 402.5V271H1675.81V239.5L1716.81 214.5L1738.31 157H1785.81V215H1862.31V271H1785.81V402.5C1785.81 412.833 1788.81 420.667 1794.81 426C1800.81 431 1808.65 433.5 1818.31 433.5ZM2032.61 210C2057.94 210 2079.61 214.833 2097.61 224.5C2115.94 234.167 2130.11 248.167 2140.11 266.5C2150.11 284.833 2155.11 307.333 2155.11 334V370H1979.11C1979.78 391 1985.94 407.5 1997.61 419.5C2009.61 431.5 2026.11 437.5 2047.11 437.5C2064.78 437.5 2080.78 435.833 2095.11 432.5C2109.44 428.833 2124.28 423.333 2139.61 416V473.5C2126.28 480.167 2112.11 485 2097.11 488C2082.44 491.333 2064.61 493 2043.61 493C2016.28 493 1992.11 488 1971.11 478C1950.11 467.667 1933.61 452.167 1921.61 431.5C1909.61 410.833 1903.61 384.833 1903.61 353.5C1903.61 321.5 1908.94 295 1919.61 274C1930.61 252.667 1945.78 236.667 1965.11 226C1984.44 215.333 2006.94 210 2032.61 210ZM2033.11 263C2018.78 263 2006.78 267.667 1997.11 277C1987.78 286.333 1982.28 300.833 1980.61 320.5H2085.11C2085.11 309.5 2083.11 299.667 2079.11 291C2075.44 282.333 2069.78 275.5 2062.11 270.5C2054.44 265.5 2044.78 263 2033.11 263Z" fill="white"/>
<defs>
<linearGradient id="paint0_linear_402_6" x1="619.5" y1="303" x2="3158.2" y2="174.55" gradientUnits="userSpaceOnUse">
<stop stop-color="#A64492" stop-opacity="0.93"/>
<stop offset="1" stop-color="#00B7B7" stop-opacity="0.94"/>
</linearGradient>
</defs>
</svg>
